<?xml version="1.0" encoding="utf-8"?>
<!-- Generator: Adobe Illustrator 17.0.0, SVG Export Plug-In . SVG Version: 6.00 Build 0)  -->
<!DOCTYPE svg PUBLIC "-//W3C//DTD SVG 1.1//EN" "http://www.w3.org/Graphics/SVG/1.1/DTD/svg11.dtd">
<svg version="1.1" id="Layer_1" xmlns="http://www.w3.org/2000/svg" xmlns:xlink="http://www.w3.org/1999/xlink" x="0px" y="0px"
	 width="360px" height="360px" viewBox="0 0 360 360" enable-background="new 0 0 360 360" xml:space="preserve">
<path d="M66.189,77.962c0.386-1.554,0.695-3.132,1.173-4.657c1.795-5.729,5.431-9.898,10.817-12.547
	c2.848-1.401,5.849-1.927,9.027-1.933c21.03-0.04,42.06-0.152,63.09-0.227c6.554-0.023,13.11-0.088,19.661,0.036
	c2.805,0.053,5.669,0.25,8.388,0.887c5.366,1.257,9.34,4.592,12.209,9.251c2.528,4.105,3.18,8.65,3.059,13.372
	c-0.074,2.9,0.478,2.742-2.713,2.754c-2.141,0.008-4.283,0.029-6.422,0.118c-0.702,0.029-0.852-0.282-0.857-0.842
	c-0.007-0.809-0.041-1.62,0.003-2.427c0.047-0.868-0.273-1.309-1.179-1.25c-0.322,0.021-0.647,0.001-0.971,0.001
	c-34.267,0-68.534,0-102.801,0c-2.367,0-2.369,0.002-2.369,2.367c0,53.079,0,106.159,0.001,159.238c0,1.889,0.002,1.892,1.839,1.892
	c25.569,0.002,51.137,0.009,76.706-0.018c1.08-0.001,1.493,0.231,1.484,1.4c-0.052,6.351-0.042,12.703-0.007,19.055
	c0.006,1.06-0.242,1.479-1.421,1.477c-22.534-0.034-45.07,0.086-67.603-0.077c-8.744-0.063-15.23-4.331-19.032-12.259
	c-0.956-1.994-1.219-4.319-1.809-6.489c-0.062-0.228-0.18-0.441-0.273-0.662C66.189,190.27,66.189,134.116,66.189,77.962z
	 M130.033,74.566c4.327,0,8.654,0.017,12.98-0.007c2.128-0.012,3.277-1.2,3.303-3.317c0.01-0.809,0.001-1.617,0-2.426
	c-0.002-3.027-0.932-3.947-4.013-3.948c-7.319-0.003-14.638-0.002-21.958-0.001c-1.173,0-2.346-0.02-3.518,0.009
	c-2.08,0.053-3.205,1.191-3.246,3.253c-0.015,0.768,0.056,1.542-0.015,2.304c-0.295,3.175,1.517,4.229,4.213,4.16
	C121.863,74.49,125.949,74.566,130.033,74.566z"/>
<path fill="#ED2024" d="M174.066,237.93c-31.226,2.191-54.79-21.636-56.985-48.277c-2.648-32.134,21.988-56.403,49.118-58.271
	c31.741-2.186,54.69,21.583,57.221,47.395C226.702,212.247,201.076,236.332,174.066,237.93z M127.512,184.757
	c-0.011,23.724,19.031,42.406,42.101,42.761c23.539,0.362,44.919-19.448,43.371-45.66c-1.222-20.689-18.307-40.024-42.735-39.996
	C146.549,141.89,127.531,161.296,127.512,184.757z"/>
<path fill="#ED2024" d="M257.629,189.984c-4.033,0.001-8.069-0.086-12.098,0.031c-2.89,0.084-5.442-2.613-5.379-5.379
	c0.066-2.916,2.374-5.268,5.353-5.273c8.152-0.013,16.304-0.012,24.456,0.005c2.91,0.006,5.268,2.444,5.25,5.361
	c-0.018,2.874-2.339,5.233-5.224,5.248C265.867,190,261.748,189.983,257.629,189.984z"/>
<path fill="#ED2024" d="M216.221,226.558c2.387-3.319,4.582-6.413,6.844-9.456c0.247-0.332,0.887-0.522,1.345-0.524
	c6.864-0.03,13.728-0.053,20.591-0.002c3.949,0.029,6.278,2.772,5.686,6.531c-0.331,2.102-2.529,4.085-4.656,4.089
	c-9.18,0.02-18.361,0.024-27.541-0.019C217.733,227.174,216.977,226.774,216.221,226.558z"/>
<path fill="#ED2024" d="M215.929,142.238c0.32-0.023,0.69-0.074,1.06-0.074c4.415-0.004,8.835,0.124,13.244-0.042
	c2.88-0.109,5.169,2.482,5.303,4.412c0.227,3.266-1.29,5.703-4.318,6.088c-2.364,0.301-4.789,0.148-7.186,0.146
	c-0.275,0-0.631-0.272-0.812-0.519C220.8,148.959,218.407,145.651,215.929,142.238z"/>
<path fill="#ED2024" d="M280.451,300.113c8.262-3.832,12.743-10.261,12.751-19.409c0.05-55.019,0.02-110.038,0.027-165.057
	c0-2.532-0.392-4.964-1.26-7.353c-2.985-8.222-10.764-13.711-19.52-13.711c-28.319,0.002-56.637,0.013-84.956-0.014
	c-3.205-0.003-6.27,0.486-9.168,1.861c-6.637,3.15-10.848,8.347-11.859,15.587c-0.627,4.49-0.286,9.117-0.314,13.683
	c-0.002,0.265,0.574,0.761,0.884,0.764c2.667,0.019,5.334-0.09,8.001-0.071c0.878,0.006,1.1-0.272,1.085-1.109
	c-0.046-2.548,0.028-5.098-0.032-7.645c-0.025-1.039,0.358-1.294,1.344-1.294c34.832,0.022,69.664,0.024,104.495,0
	c1.036-0.001,1.308,0.341,1.308,1.33c-0.019,53.603-0.021,107.206,0.004,160.809c0.001,1.141-0.359,1.426-1.463,1.425
	c-34.71-0.027-69.421-0.029-104.131,0.002c-1.237,0.001-1.571-0.344-1.566-1.571c0.044-11.327,0.005-22.655,0.051-33.982
	c0.005-1.158-0.333-1.439-1.436-1.403c-2.414,0.077-4.839,0.12-7.247-0.032c-1.15-0.073-1.355,0.227-1.352,1.279
	c0.029,12.136,0.013,24.273,0.02,36.409c0,0.928-0.009,1.871,0.138,2.782c1.292,8.013,5.471,13.757,13.005,16.843h100.904
	C280.259,300.197,280.356,300.157,280.451,300.113z M245.633,293.937c-0.275,0.996-1.189,1.488-2.25,1.542
	c-0.645,0.033-1.292,0.036-1.938,0.037c-8.082,0.003-16.165,0.003-24.247,0.002c-2.916,0-3.988-1.085-3.985-4.018
	c0.001-0.727-0.015-1.455-0.001-2.182c0.044-2.206,1.177-3.375,3.371-3.387c4.405-0.024,8.81-0.007,13.214-0.007
	c4.001-0.003,8.006,0.112,12.001-0.042c2.93-0.113,4.622,1.007,4.307,4.404C245.992,291.509,245.956,292.765,245.633,293.937z"/>
<g>
	<path fill="#161616" d="M195.773,192.541l-29.204-4.576l3.871,17.402L195.773,192.541z"/>
	<path fill="#252525" d="M195.773,192.541l-22.006-30.575l-7.192,26.004L195.773,192.541z"/>
	<path fill="#161616" d="M165.891,187.618l-23.058-29.468l30.195,3.607L165.891,187.618z"/>
	<path d="M155.389,175.304l-12.804-12.066h3.37L155.389,175.304z"/>
	<path fill="#161616" d="M202.001,177.678l-5.419,14.698l-8.784-12.149L202.001,177.678z"/>
	<path fill="#161616" d="M173.849,204.486l21.263-8.542l0.892-2.715L173.849,204.486z"/>
	<path d="M156.843,220.605l9.109-31.952l4.62,20.789L156.843,220.605z"/>
	<path fill="#161616" d="M202.85,177.793l-2.236,6.069l8.062-0.132L202.85,177.793z"/>
</g>
</svg>
