<svg xmlns="http://www.w3.org/2000/svg" width="80" height="81" viewBox="0 0 80 81">
    <g fill="none" fill-rule="nonzero">
        <path fill="#EC1C24" d="M78.341 51.006l-52.698 29.23c-1.441.81-3.286.265-4.093-1.182L5.535 49.98c-.806-1.446-.264-3.298 1.178-4.106l52.698-29.23c1.442-.81 3.287-.265 4.093 1.182l16.015 29.074c.791 1.463.264 3.298-1.178 4.107z"/>
        <path fill="#FFF" d="M71.612 51.286L29.457 74.667c-1.597-2.909-5.286-3.967-8.186-2.364L11.07 53.79c2.899-1.603 3.953-5.305 2.356-8.214l42.155-23.381c1.597 2.909 5.287 3.967 8.186 2.364L73.97 43.072c-2.9 1.618-3.953 5.305-2.357 8.214z"/>
        <g fill="#EC1C24" transform="translate(22.79 30.705)">
            <ellipse cx="19.738" cy="17.738" rx="13.08" ry="12.964" transform="rotate(-28.933 19.738 17.738)"/>
            <ellipse cx="37.522" cy="7.876" rx="2.264" ry="2.271"/>
            <ellipse cx="2.324" cy="27.396" rx="2.264" ry="2.271"/>
        </g>
        <path fill="#FFF" d="M34.186 42.341c.853-.482 1.643-.606 2.372-.404.434.124.853.389 1.256.793.419.405.853 1.042 1.349 1.914l.697 1.275 5.938-3.298a1.04 1.04 0 0 1 1.411.405c.28.498.093 1.135-.403 1.415l-5.938 3.298 3.35 6.067c.325.607.635.965.93 1.12.294.14.681.078 1.178-.202.542-.295.992-.731 1.364-1.322a4.574 4.574 0 0 0 .698-1.851c.093-.654-.016-1.245-.295-1.758-.155-.28-.357-.451-.62-.53-.264-.077-.59 0-1.008.234a6.05 6.05 0 0 1-.201.125.969.969 0 0 1-1.303-.218l-.077-.11a.959.959 0 0 1 .17-1.321h.016c.279-.203.558-.405.868-.576.806-.451 1.566-.607 2.28-.498.712.11 1.317.591 1.782 1.447.388.716.605 1.478.605 2.271.015.794-.14 1.571-.434 2.35a7.574 7.574 0 0 1-1.24 2.1 6.133 6.133 0 0 1-1.8 1.508c-.557.311-1.053.498-1.503.576-.45.078-.853.078-1.21-.016a2.684 2.684 0 0 1-1.038-.544c-.341-.265-.729-.81-1.178-1.634l-3.365-6.113-1.147.638a1.04 1.04 0 0 1-1.41-.405 1.048 1.048 0 0 1 .402-1.415l1.147-.638-.65-1.183c-.373-.684-.76-1.166-1.117-1.446-.372-.265-.868-.234-1.488.109-.248.14-.45.28-.667.482-.062.062-.341.062-.62-.031-.76-.218-.992-1.214-.403-1.727l.015-.016c.357-.295.79-.59 1.287-.87z"/>
        <g fill="#606161">
            <path d="M.06 16.442V8.478c0-4.01 2.81-7.003 6.952-7.003 4.258 0 6.98 3.08 6.98 6.975v7.992c0 4.155-2.578 6.829-6.98 6.829-4.519 0-6.952-2.76-6.952-6.83zm10.776-.087V8.538c0-2.5-1.332-4.04-3.794-4.04-2.52 0-3.853 1.686-3.853 4.04v7.789c0 2.353 1.275 3.893 3.794 3.893 2.52 0 3.853-1.599 3.853-3.865zM34.874 1.766h3.968l-18.16 21.216h-3.967l18.16-21.216zm-13.062-.291c2.78 0 5.04 2.237 5.04 5.057 0 2.79-2.258 5.058-5.04 5.058-2.78 0-5.04-2.267-5.04-5.058a5.034 5.034 0 0 1 5.04-5.057zm0 7.498c1.304 0 2.376-1.104 2.376-2.44 0-1.366-1.072-2.441-2.376-2.441-1.303 0-2.375 1.075-2.375 2.44 0 1.337 1.072 2.441 2.375 2.441zm11.932 4.185c2.78 0 5.04 2.266 5.04 5.056 0 2.818-2.258 5.085-5.04 5.085-2.81 0-5.039-2.267-5.039-5.085 0-2.79 2.23-5.056 5.04-5.056zm0 7.498c1.304 0 2.375-1.075 2.375-2.44 0-1.337-1.07-2.412-2.375-2.412-1.304 0-2.375 1.075-2.375 2.411.002 1.366 1.073 2.44 2.375 2.44z"/>
        </g>
    </g>
</svg>
