<svg xmlns="http://www.w3.org/2000/svg" width="80" height="81" viewBox="0 0 80 81">
    <g fill="none" fill-rule="nonzero">
        <path fill="#EB2027" d="M.1 29.404v-2.029c.029-.187.072-.36.086-.546.244-4.417 1.405-8.588 3.642-12.4C8.516 6.459 15.441 1.755 24.602.403c.846-.13 1.706-.187 2.552-.288h2.237c.157.029.33.072.487.086 2.208.115 4.373.446 6.466 1.151C46.882 4.877 53.405 12.07 55.842 22.945c.23 1.05.33 2.129.502 3.208v4.473c-.072.46-.129.935-.2 1.396-.488 3.337-1.32 6.574-3.054 9.509-1.205 2.057-2.352 4.157-3.613 6.17C42.552 58.78 35.599 69.828 28.659 80.89c-.114.187-.186.388-.286.575h-.201c-.057-.115-.1-.244-.172-.36-2.28-3.581-4.616-7.135-6.853-10.73C15.556 61.367 10.022 52.32 4.416 43.3 2.222 39.76.846 35.949.344 31.82.258 31.015.186 30.21.1 29.404zm43.054-.993c0-8.257-6.68-14.975-14.867-14.975-8.215 0-14.882 6.69-14.896 14.946 0 8.2 6.695 14.947 14.838 14.947 8.201 0 14.925-6.718 14.925-14.918z"/>
        <path fill="#000" d="M28.244 38.308c-5.434-.014-9.893-4.517-9.864-9.969.029-5.438 4.473-9.868 9.907-9.883 5.405 0 9.878 4.489 9.85 9.926-.015 5.496-4.445 9.94-9.893 9.926z"/>
        <g fill="#EB2027">
            <path d="M79.398 56.865c-.301-.388-.774-.604-1.29-.604H55.986c-.86 0-1.65.633-1.821 1.496l-1.032 5.452-.674 3.525h3.512l.674-3.51.674-3.51h4.746l-1.233 5.408c-.1.49.028.993.344 1.381.315.375.774.59 1.276.59h5.462c.86 0 1.634-.633 1.806-1.453l1.377-5.912h4.788l-3.799 18.37h-18.25l.63-3.309h-3.513l-.903 4.805c-.086.49.029.993.344 1.367.316.388.789.604 1.29.604h21.707a1.87 1.87 0 0 0 1.806-1.482l4.545-21.837c.029-.1.029-.23.029-.33a1.831 1.831 0 0 0-.373-1.05m-12.774 6.76h-1.936l.918-3.898h1.935l-.917 3.898zm-11.27 6.43l.417-2.128h-3.513l-.401 2.129-.674 3.524h3.498l.674-3.524z"/>
            <path d="M58.208 64.979c0 .978-.803 1.769-1.764 1.769h-8.888a1.765 1.765 0 0 1-1.764-1.77c0-.978.789-1.769 1.764-1.769h8.888c.072 0 .144 0 .201.029a1.746 1.746 0 0 1 1.563 1.74M60.029 71.826c0 .978-.789 1.77-1.764 1.77H43.527a1.765 1.765 0 0 1-1.764-1.77c0-.978.789-1.77 1.764-1.77h14.738c.975 0 1.764.792 1.764 1.77"/>
        </g>
    </g>
</svg>
