<svg xmlns="http://www.w3.org/2000/svg" width="80" height="81" viewBox="0 0 80 81">
    <g fill="none" fill-rule="evenodd" transform="translate(0 .73)">
        <path fill="#EB2027" fill-rule="nonzero" d="M17.104 51.867A1.116 1.116 0 0 1 16 50.747V28.1c0-9.687 7.714-16.986 17.95-16.986h12.081c9.861 0 16.738 6.991 16.738 16.986v17.724c0 .615-.497 1.12-1.104 1.12a1.116 1.116 0 0 1-1.103-1.12V28.1c0-8.813-5.834-14.746-14.53-14.746H33.95c-9.121 0-15.744 6.204-15.744 14.746v22.647c0 .615-.485 1.12-1.103 1.12z"/>
        <path fill="#EB2027" fill-rule="nonzero" d="M23.279 34.578h-2.356v-3.714c0-4.253 1.532-8.09 4.416-11.105l1.738 1.507c-2.485 2.599-3.798 5.92-3.798 9.598v3.714z"/>
        <path stroke="#EB2027" stroke-width="1.827" d="M30.77 16.054a14.309 14.309 0 0 0-3.693 2.47"/>
        <path fill="#EB2027" fill-rule="nonzero" d="M32.855 13.584l2.149-1.169-4.859-9.45c-.107-.209.036-.467.275-.467h19.232c.227 0 .382.258.275.467l-4.86 9.45 2.15 1.17 5.706-11.087V.468A.46.46 0 0 0 52.47 0H27.531a.46.46 0 0 0-.454.468V2.51l5.778 11.074z"/>
        <path fill="#000" fill-rule="nonzero" d="M67.692 54.337h9.846v23.464h-9.846z"/>
        <path fill="#EB2027" fill-rule="nonzero" d="M80 79.035H66.462V53.102H80v25.933zm-11.288-2.204h9.025V55.306h-9.025v21.525z"/>
        <path fill="#EB2027" fill-rule="nonzero" d="M27.717 64.216c-3.07-4.552-1.9-8.383.22-10.46 1.036-1.008 2.437-1.567 3.96-1.58l11.664-.112c1.353-1.12 6.63-5.137 12.65-5.137 6.826 0 11.298 6.58 11.481 6.854l-1.84 1.28c-.037-.061-3.997-5.87-9.64-5.87-6.009 0-11.457 4.801-11.505 4.85l-.305.274-12.468.125c-.95.012-1.816.348-2.437.958-.707.696-2.791 3.283.073 7.525l-1.853 1.293z"/>
        <path fill="#EB2027" fill-rule="nonzero" d="M66.6 79.035H32.305a6.857 6.857 0 0 1-3.18-.786L3.632 64.926C.779 63.436-.63 60.242.269 57.334c.4-1.287 1.153-2.502 2.258-3.61 1.323-1.323 3.047-1.943 4.99-1.848 1.056.06 2.148.37 3.229.918l18.622 9.486c.655.334 1.371.5 2.136.5l17.858-.142h.012c.607 0 1.104.476 1.104 1.084 0 .596-.485 1.096-1.104 1.096l-17.858.143c-1.056.024-2.197-.25-3.18-.75l-18.61-9.486c-.801-.406-1.59-.644-2.343-.68-1.311-.083-2.404.334-3.278 1.192-.85.858-1.432 1.776-1.724 2.73-.594 1.918.365 4.039 2.283 5.04l25.493 13.335a4.6 4.6 0 0 0 2.136.524h34.295c.607 0 1.104.489 1.104 1.085s-.485 1.084-1.092 1.084z"/>
        <path fill="#000" fill-rule="nonzero" d="M36.068 20.994c1.266 0 2.236.35 2.91 1.028.414.399.71.943.922 1.633.213.689.308 1.669.308 2.939v2.189h10.254v2.975H40.208v7.704c0 .726.106 1.258.307 1.56.201.315.627.472 1.254.472a4.28 4.28 0 0 0 2.034-.52 5.083 5.083 0 0 0 1.656-1.342c.437-.557.662-1.137.662-1.766a1.07 1.07 0 0 0-.32-.786c-.212-.206-.579-.315-1.087-.315-.225 0-.438.012-.639.049-.201.036-.39.06-.556.084l-.426-2.782c.734-.193 1.585-.278 2.543-.278 1.16 0 2.105.278 2.815.835.71.556 1.076 1.44 1.076 2.649a5.948 5.948 0 0 1-.733 2.914 7.65 7.65 0 0 1-1.928 2.274 8.568 8.568 0 0 1-2.637 1.451 8.473 8.473 0 0 1-2.85.496c-.816 0-1.502-.096-2.046-.278-.556-.193-1.006-.447-1.349-.786-.33-.339-.603-.762-.828-1.282-.224-.52-.343-1.403-.343-2.625V31.77h-2.72v-2.975h2.72v-2.032c0-.895-.106-1.584-.342-2.056-.225-.472-.734-.702-1.526-.702-.331 0-.65.037-.982.121a6.388 6.388 0 0 0-.922.315L32 21.84c.733-.29 1.407-.509 2.022-.642a9.705 9.705 0 0 1 2.046-.205z"/>
        <ellipse cx="72.615" cy="72.861" fill="#FFF" fill-rule="nonzero" rx="1.231" ry="1.235"/>
    </g>
</svg>
