<svg width="80" height="54" xmlns="http://www.w3.org/2000/svg" viewBox="0.017 13.267 79.983 54.1"><g fill="none" transform="translate(0 13.135)"><path fill="#EC1C24" d="M17.88 20.744c-.176.753-.23 1.505-.53 2.147-.219.452-.75.766-1.146 1.135-.204-.478-.517-.943-.572-1.435-.068-.506.164-1.053.19-1.587.11-1.75 1.023-2.283 2.74-2.283 10.712.068 21.438.027 32.15.04 2.535 0 2.576.055 2.099 2.421-1.717 8.56-3.516 17.107-5.179 25.681-.34 1.75-1.131 2.215-2.835 2.188-5.124-.11-10.248-.014-15.373-.055-1.117-.013-1.744.26-2.262 1.368-1.295 2.762-3.993 4.225-6.637 3.76-2.767-.478-3.448-2.584-3.653-5.114-1.662 0-3.257-.027-4.852.014-1.063.027-1.471-.397-1.24-1.45.191-.848.218-1.75.545-2.53.205-.492.845-.793 1.281-1.19.164.493.423.972.477 1.478.055.492-.095 1.011-.177 1.627 2.467.123 4.593.465 6.624-1.655 2.644-2.762 5.956-2.092 8.013 1.012.26.397.927.725 1.404.725 4.988.055 9.99.027 14.978.027h1.69c1.772-8.724 3.53-17.435 5.329-26.337-11.148.013-22.079.013-33.063.013zm7.892 27.678c.027-1.641-1.05-2.762-2.658-2.803-2.044-.041-4.048 1.832-4.116 3.842-.054 1.56 1.104 2.749 2.726 2.79 2.03.068 4.007-1.805 4.048-3.829zm27.72.698c-4.524-.315-4.51-.315-3.598-4.8 1.227-6.004 2.508-12.007 3.653-18.037.34-1.764 1.2-2.585 2.93-2.585 3.257 0 6.528.028 9.785-.014 1.513-.013 2.208.616 2.154 2.161-.096 2.338-.055 4.677-.205 7.015-.082 1.286.191 2.202 1.431 2.735 1.758.766 2.154 2.038 1.636 3.884-.627 2.242-1.077 4.54-1.472 6.837-.327 1.915-1.322 2.858-3.257 2.68-1.39-.136-2.263.15-2.903 1.655-.845 1.996-2.617 3.172-4.811 3.473-3.135.452-4.784-1.094-5.343-5.005zm12.743-23.466c-3.244 0-6.364-.041-9.485.04-.477.014-1.268.575-1.363.999-1.418 6.687-2.74 13.401-4.103 20.184 1.8.369 3.108.287 4.47-1.245 2.631-2.953 6.324-2.447 8.505.657.409.588 1.69.697 2.576.71.381 0 .981-.751 1.117-1.257.505-1.997.75-4.062 1.322-6.044.382-1.327 0-2.052-1.13-2.517-1.69-.71-2.018-2.023-1.95-3.705.11-2.503.041-5.019.041-7.822zm-3.748 22.659c-.013-1.587-1.213-2.735-2.794-2.708-2.058.027-4.006 1.955-4.006 3.966 0 1.586 1.172 2.707 2.82 2.68 2.059-.027 3.994-1.928 3.98-3.938z"/><path fill="#EC1C24" d="M63.223 2.106c-7.305 0-13.37 5.169-14.732 12.471-.123.643-.71 1.19-1.077 1.792-.232-.725-.75-1.477-.64-2.147 1.24-7.727 7.14-13.183 15.018-14.003 7.196-.752 14.27 3.678 17.05 10.666 2.725 6.837.477 14.946-5.384 19.404-.313.247-.627.602-.981.657-.504.082-1.05-.055-1.567-.096.177-.506.218-1.135.558-1.477 1.186-1.244 2.672-2.256 3.667-3.624 3.489-4.772 3.938-9.955 1.403-15.288-2.494-5.21-7.632-8.355-13.315-8.355z"/><path fill="#231F20" d="M22.5 28.142c-3.529 0-7.045.041-10.575-.04h-.014c-.98-.042-1.185-1.45-.286-1.833a.837.837 0 0 1 .355-.082c7.25-.082 14.487-.068 21.737-.014.041 0 .096 0 .136.014.736.137.927 1.121.368 1.614-.19.164-.381.273-.572.287-2.658.123-5.315.054-7.973.068-1.035-.014-2.098-.014-3.175-.014zm-5.137 4.472c-3.53 0-7.046.041-10.576-.041h-.014c-.98-.041-1.185-1.45-.286-1.832a.837.837 0 0 1 .355-.082c7.25-.082 14.487-.069 21.737-.014.041 0 .096 0 .137.014.735.136.926 1.12.367 1.613-.19.164-.381.274-.572.287-2.658.123-5.315.055-7.973.069-1.05-.014-2.112-.014-3.175-.014zm-5.888 3.746c-3.53 0-7.046.042-10.576-.04H.886C-.095 36.279-.3 34.87.6 34.487a.837.837 0 0 1 .354-.082c7.25-.082 14.487-.068 21.738-.013.04 0 .095 0 .136.013.736.137.927 1.122.368 1.614-.19.164-.382.274-.572.287-2.658.123-5.316.055-7.973.069-1.05-.014-2.113-.014-3.176-.014zm3.339 4.172c-3.53 0-7.046.04-10.575-.041h-.014c-.981-.041-1.186-1.45-.286-1.833a.837.837 0 0 1 .354-.082c7.25-.082 14.487-.068 21.738-.013.04 0 .095 0 .136.013.736.137.927 1.122.368 1.614-.19.164-.382.273-.572.287-2.658.123-5.316.055-7.973.068-1.05-.013-2.113-.013-3.176-.013zm49.268-29.989c.463 2.01.313 3.897 1.104 5.785.477 1.162 1.744 2.023 2.766 2.899 1.009.861 2.195 1.517 3.176 2.406.109.096.177.246.231.41.178.643-.368 1.3-1.022 1.177a.67.67 0 0 1-.231-.082c-1.35-.848-2.563-1.929-3.925-2.75-1.036-.614-2.195-1.066-3.34-1.421-1.226-.383-2.207-1.805-1.43-2.735 1.199-1.436.885-2.995.913-4.554.04-1.805-.055-3.61.054-5.401 0-.096.027-.192.082-.287.313-.725 1.417-.67 1.608.095.014.041.014.096.027.137.11 1.326.041 2.667.041 4.007-.15.027.096.273-.054.314z"/><ellipse cx="22.53" cy="48.958" fill="#231F20" rx="1.23" ry="1" transform="rotate(-73.209 22.53 48.958)"/><ellipse cx="58.921" cy="48.959" fill="#231F20" rx="1.23" ry="1" transform="rotate(-73.209 58.921 48.96)"/><path fill="#231F20" d="M61.247 27.322c-4.715.055-4.048-.944-5.097 4.198-.9 4.444-.9 4.444 3.543 4.444 4.566 0 4.566 0 4.866-4.608.013-.137.013-.26.027-.397.3-4.088.736-3.692-3.339-3.637zm1.58 7.289l-5.178-.383.164-2.284c0-.123.013-.246.027-.37l.49-2.707 4.92-.068-.422 5.812z"/><ellipse cx="62.378" cy="17.558" fill="#231F20" rx="1.704" ry="1.709"/></g></svg>